<?xml version="1.0" encoding="utf-8"?>
<!-- Generator: Adobe Illustrator 23.0.2, SVG Export Plug-In . SVG Version: 6.00 Build 0)  -->
<svg version="1.1" id="Camada_1" xmlns="http://www.w3.org/2000/svg" xmlns:xlink="http://www.w3.org/1999/xlink" x="0px" y="0px"
	 viewBox="0 0 110 87.1" style="enable-background:new 0 0 110 87.1;" xml:space="preserve">
<style type="text/css">
	.st0{fill:#292929;}
</style>
<path class="st0" d="M56,28.9c0-1.7,1.4-3.1,3.1-3.1h16.7h0c1.7,0,3.1,1.4,3.1,3.1c0,1.7-1.4,3.1-3.1,3.1H59.2
	C57.4,32,56.1,30.6,56,28.9L56,28.9z M59.2,19.5h33.3c1.7,0,3.1-1.4,3.1-3.1c0-1.7-1.4-3.1-3.1-3.1H59.2c-1.7,0-3.1,1.4-3.1,3.1
	C56,18.1,57.4,19.5,59.2,19.5z M38.3,48.7l-16.7,0c-4,0-7.3,3.3-7.3,7.3v16.7c0,4,3.3,7.3,7.3,7.3h16.7c4,0,7.3-3.3,7.3-7.3V56
	C45.6,52,42.4,48.7,38.3,48.7L38.3,48.7z M44.7,14.3L32.2,26.8C31,28,29,28,27.8,26.8l-4.2-4.2v0c-0.7-1.3-0.5-2.8,0.6-3.8
	c1.1-1,2.6-1.1,3.8-0.3l2,1.8l10.3-10.2c0.9-0.9,2.2-1.2,3.3-0.7c-1.3-1.5-3.3-2.4-5.3-2.4H21.7c-4,0-7.3,3.3-7.3,7.3V31
	c0,4,3.3,7.3,7.3,7.3h16.7c4,0,7.3-3.3,7.3-7.3V14.3c0-0.5,0-0.9,0-1.4C45.4,13.5,45.1,13.9,44.7,14.3L44.7,14.3z M92.5,54.9H59.2
	c-1.7,0-3.1,1.4-3.1,3.1c0,1.7,1.4,3.1,3.1,3.1h33.3c1.7,0,3.1-1.4,3.1-3.1C95.6,56.3,94.2,54.9,92.5,54.9z M75.8,67.4H59.2
	c-1.7,0-3.1,1.4-3.1,3.1c0,1.7,1.4,3.1,3.1,3.1h16.7h0c1.7,0,3.1-1.4,3.1-3.1C79,68.8,77.6,67.4,75.8,67.4L75.8,67.4z"/>
</svg>
